# xmcd
#
# Track frame offsets: 
#        150
#        8929
#        28575
#        44307
#        64000
#        83172
#        121683
#        143578
#        161918
#        189297
#        212341
#
# Disc length: 3057 seconds
#
# Revision: 0
# Processed by: cddbd v1.5.2PL0 Copyright (c) Steve Scherf et al.
# Submitted via: ExactAudioCopy v1.3
#
DISCID=850bef0b
DTITLE=Eric Gales - The Bookends
DYEAR=2019
DGENRE=Blues Rock
TTITLE0=Intro
TTITLE1=Something's Gotta Give
TTITLE2=Whatcha Gon' Do
TTITLE3=It Just Beez That Way
TTITLE4=How Do I Get You
TTITLE5=Southpaw Serenade
TTITLE6=Reaching For A Change
TTITLE7=Somebody Lied
TTITLE8=With A Little Help From My Friends
TTITLE9=Resolution
TTITLE10=Pedal To The Metal
EXTD=
EXTT0=
EXTT1=
EXTT2=
EXTT3=
EXTT4=
EXTT5=
EXTT6=
EXTT7=
EXTT8=
EXTT9=
EXTT10=
PLAYORDER=
